<svg xmlns="http://www.w3.org/2000/svg" width="1800" viewBox="0 0 411.7 176.3" font-family="Helvetica, Arial, sans-serif"><rect width="411.7" height="176.3" fill="#2b2d31"/><g transform="translate(32.00,43.91) rotate(0)"><rect x="-9.03" y="-9.03" width="18.05" height="18.05" rx="1.6" fill="#b8433a" stroke="#1b1c1f" stroke-width=".3"/><rect x="-6.93" y="-7.93" width="13.85" height="13.25" rx="1.4" fill="#cc5146"/><text x="-5.53" y="-3.33" font-size="2.9" fill="#fff">Esc</text><text x="-6.12" y="7.33" font-size="2.2" fill="#fff" opacity=".6">L1</text></g><g transform="translate(48.67,101.06) rotate(0)"><rect x="-11.41" y="-9.03" width="22.81" height="18.05" rx="1.6" fill="#7d8189" stroke="#1b1c1f" stroke-width=".3"/><rect x="-9.31" y="-7.93" width="18.61" height="13.25" rx="1.4" fill="#8f939b"/><text x="-7.91" y="-3.33" font-size="2.9" fill="#f2f2f2">Ctrl</text><text x="-8.51" y="7.33" font-size="2.2" fill="#f2f2f2" opacity=".6">L2</text><text x="8.51" y="7.33" font-size="2.2" text-anchor="end" fill="#f2f2f2" opacity=".6">1.25U</text></g><g transform="translate(43.91,82.01) rotate(0)"><rect x="-16.17" y="-9.03" width="32.34" height="18.05" rx="1.6" fill="#7d8189" stroke="#1b1c1f" stroke-width=".3"/><rect x="-14.07" y="-7.93" width="28.14" height="13.25" rx="1.4" fill="#8f939b"/><text x="-12.67" y="-3.33" font-size="2.6" fill="#f2f2f2">Caps Lock</text><text x="-13.27" y="7.33" font-size="2.2" fill="#f2f2f2" opacity=".6">L3</text><text x="13.27" y="7.33" font-size="2.2" text-anchor="end" fill="#f2f2f2" opacity=".6">1.75U</text></g><g transform="translate(46.29,62.96) rotate(0)"><rect x="-13.79" y="-9.03" width="27.58" height="18.05" rx="1.6" fill="#7d8189" stroke="#1b1c1f" stroke-width=".3"/><rect x="-11.69" y="-7.93" width="23.38" height="13.25" rx="1.4" fill="#8f939b"/><text x="-10.29" y="-3.33" font-size="2.9" fill="#f2f2f2">Tab</text><text x="-10.89" y="7.33" font-size="2.2" fill="#f2f2f2" opacity=".6">L4</text><text x="10.89" y="7.33" font-size="2.2" text-anchor="end" fill="#f2f2f2" opacity=".6">1.5U</text></g><g transform="translate(51.05,43.91) rotate(0)"><rect x="-9.03" y="-9.03" width="18.05" height="18.05" rx="1.6" fill="#e8e2d0" stroke="#1b1c1f" stroke-width=".3"/><rect x="-6.93" y="-7.93" width="13.85" height="13.25" rx="1.4" fill="#f6f1e2"/><text x="-5.53" y="-3.33" font-size="2.9" fill="#2f2f2f">+</text><text x="-5.53" y="2.27" font-size="2.9" fill="#2f2f2f">=</text><text x="-6.12" y="7.33" font-size="2.2" fill="#2f2f2f" opacity=".6">L5</text></g><g transform="translate(70.10,96.29) rotate(0)"><rect x="-9.03" y="-9.03" width="18.05" height="18.05" rx="1.6" fill="#e8e2d0" stroke="#1b1c1f" stroke-width=".3"/><rect x="-6.93" y="-7.93" width="13.85" height="13.25" rx="1.4" fill="#f6f1e2"/><text x="-5.53" y="-3.33" font-size="3.6" fill="#2f2f2f">Z</text><text x="-6.12" y="7.33" font-size="2.2" fill="#2f2f2f" opacity=".6">L6</text></g><g transform="translate(70.10,77.24) rotate(0)"><rect x="-9.03" y="-9.03" width="18.05" height="18.05" rx="1.6" fill="#e8e2d0" stroke="#1b1c1f" stroke-width=".3"/><rect x="-6.93" y="-7.93" width="13.85" height="13.25" rx="1.4" fill="#f6f1e2"/><text x="-5.53" y="-3.33" font-size="3.6" fill="#2f2f2f">A</text><text x="-6.12" y="7.33" font-size="2.2" fill="#2f2f2f" opacity=".6">L7</text></g><g transform="translate(70.10,58.19) rotate(0)"><rect x="-9.03" y="-9.03" width="18.05" height="18.05" rx="1.6" fill="#e8e2d0" stroke="#1b1c1f" stroke-width=".3"/><rect x="-6.93" y="-7.93" width="13.85" height="13.25" rx="1.4" fill="#f6f1e2"/><text x="-5.53" y="-3.33" font-size="3.6" fill="#2f2f2f">Q</text><text x="-6.12" y="7.33" font-size="2.2" fill="#2f2f2f" opacity=".6">L8</text></g><g transform="translate(70.10,39.14) rotate(0)"><rect x="-9.03" y="-9.03" width="18.05" height="18.05" rx="1.6" fill="#e8e2d0" stroke="#1b1c1f" stroke-width=".3"/><rect x="-6.93" y="-7.93" width="13.85" height="13.25" rx="1.4" fill="#f6f1e2"/><text x="-5.53" y="-3.33" font-size="2.9" fill="#2f2f2f">!</text><text x="-5.53" y="2.27" font-size="2.9" fill="#2f2f2f">1</text><text x="-6.12" y="7.33" font-size="2.2" fill="#2f2f2f" opacity=".6">L9</text></g><g transform="translate(89.15,110.58) rotate(0)"><rect x="-9.03" y="-9.03" width="18.05" height="18.05" rx="1.6" fill="#7d8189" stroke="#1b1c1f" stroke-width=".3"/><rect x="-6.93" y="-7.93" width="13.85" height="13.25" rx="1.4" fill="#8f939b"/><text x="-5.53" y="-3.33" font-size="3.6" fill="#f2f2f2">←</text><text x="-6.12" y="7.33" font-size="2.2" fill="#f2f2f2" opacity=".6">L10</text></g><g transform="translate(89.15,91.53) rotate(0)"><rect x="-9.03" y="-9.03" width="18.05" height="18.05" rx="1.6" fill="#e8e2d0" stroke="#1b1c1f" stroke-width=".3"/><rect x="-6.93" y="-7.93" width="13.85" height="13.25" rx="1.4" fill="#f6f1e2"/><text x="-5.53" y="-3.33" font-size="3.6" fill="#2f2f2f">X</text><text x="-6.12" y="7.33" font-size="2.2" fill="#2f2f2f" opacity=".6">L11</text></g><g transform="translate(89.15,72.48) rotate(0)"><rect x="-9.03" y="-9.03" width="18.05" height="18.05" rx="1.6" fill="#e8e2d0" stroke="#1b1c1f" stroke-width=".3"/><rect x="-6.93" y="-7.93" width="13.85" height="13.25" rx="1.4" fill="#f6f1e2"/><text x="-5.53" y="-3.33" font-size="3.6" fill="#2f2f2f">S</text><text x="-6.12" y="7.33" font-size="2.2" fill="#2f2f2f" opacity=".6">L12</text></g><g transform="translate(89.15,53.43) rotate(0)"><rect x="-9.03" y="-9.03" width="18.05" height="18.05" rx="1.6" fill="#e8e2d0" stroke="#1b1c1f" stroke-width=".3"/><rect x="-6.93" y="-7.93" width="13.85" height="13.25" rx="1.4" fill="#f6f1e2"/><text x="-5.53" y="-3.33" font-size="3.6" fill="#2f2f2f">W</text><text x="-6.12" y="7.33" font-size="2.2" fill="#2f2f2f" opacity=".6">L13</text></g><g transform="translate(89.15,34.38) rotate(0)"><rect x="-9.03" y="-9.03" width="18.05" height="18.05" rx="1.6" fill="#e8e2d0" stroke="#1b1c1f" stroke-width=".3"/><rect x="-6.93" y="-7.93" width="13.85" height="13.25" rx="1.4" fill="#f6f1e2"/><text x="-5.53" y="-3.33" font-size="2.9" fill="#2f2f2f">@</text><text x="-5.53" y="2.27" font-size="2.9" fill="#2f2f2f">2</text><text x="-6.12" y="7.33" font-size="2.2" fill="#2f2f2f" opacity=".6">L14</text></g><g transform="translate(108.20,108.20) rotate(0)"><rect x="-9.03" y="-9.03" width="18.05" height="18.05" rx="1.6" fill="#7d8189" stroke="#1b1c1f" stroke-width=".3"/><rect x="-6.93" y="-7.93" width="13.85" height="13.25" rx="1.4" fill="#8f939b"/><text x="-5.53" y="-3.33" font-size="3.6" fill="#f2f2f2">→</text><text x="-6.12" y="7.33" font-size="2.2" fill="#f2f2f2" opacity=".6">L15</text></g><g transform="translate(108.20,89.15) rotate(0)"><rect x="-9.03" y="-9.03" width="18.05" height="18.05" rx="1.6" fill="#e8e2d0" stroke="#1b1c1f" stroke-width=".3"/><rect x="-6.93" y="-7.93" width="13.85" height="13.25" rx="1.4" fill="#f6f1e2"/><text x="-5.53" y="-3.33" font-size="3.6" fill="#2f2f2f">C</text><text x="-6.12" y="7.33" font-size="2.2" fill="#2f2f2f" opacity=".6">L16</text></g><g transform="translate(108.20,70.10) rotate(0)"><rect x="-9.03" y="-9.03" width="18.05" height="18.05" rx="1.6" fill="#e8e2d0" stroke="#1b1c1f" stroke-width=".3"/><rect x="-6.93" y="-7.93" width="13.85" height="13.25" rx="1.4" fill="#f6f1e2"/><text x="-5.53" y="-3.33" font-size="3.6" fill="#2f2f2f">D</text><text x="-6.12" y="7.33" font-size="2.2" fill="#2f2f2f" opacity=".6">L17</text></g><g transform="translate(108.20,51.05) rotate(0)"><rect x="-9.03" y="-9.03" width="18.05" height="18.05" rx="1.6" fill="#e8e2d0" stroke="#1b1c1f" stroke-width=".3"/><rect x="-6.93" y="-7.93" width="13.85" height="13.25" rx="1.4" fill="#f6f1e2"/><text x="-5.53" y="-3.33" font-size="3.6" fill="#2f2f2f">E</text><text x="-6.12" y="7.33" font-size="2.2" fill="#2f2f2f" opacity=".6">L18</text></g><g transform="translate(108.20,32.00) rotate(0)"><rect x="-9.03" y="-9.03" width="18.05" height="18.05" rx="1.6" fill="#e8e2d0" stroke="#1b1c1f" stroke-width=".3"/><rect x="-6.93" y="-7.93" width="13.85" height="13.25" rx="1.4" fill="#f6f1e2"/><text x="-5.53" y="-3.33" font-size="2.9" fill="#2f2f2f">#</text><text x="-5.53" y="2.27" font-size="2.9" fill="#2f2f2f">3</text><text x="-6.12" y="7.33" font-size="2.2" fill="#2f2f2f" opacity=".6">L19</text></g><g transform="translate(127.25,91.53) rotate(0)"><rect x="-9.03" y="-9.03" width="18.05" height="18.05" rx="1.6" fill="#e8e2d0" stroke="#1b1c1f" stroke-width=".3"/><rect x="-6.93" y="-7.93" width="13.85" height="13.25" rx="1.4" fill="#f6f1e2"/><text x="-5.53" y="-3.33" font-size="3.6" fill="#2f2f2f">V</text><text x="-6.12" y="7.33" font-size="2.2" fill="#2f2f2f" opacity=".6">L20</text></g><g transform="translate(127.25,72.48) rotate(0)"><rect x="-9.03" y="-9.03" width="18.05" height="18.05" rx="1.6" fill="#e8e2d0" stroke="#1b1c1f" stroke-width=".3"/><rect x="-6.93" y="-7.93" width="13.85" height="13.25" rx="1.4" fill="#f6f1e2"/><text x="-5.53" y="-3.33" font-size="3.6" fill="#2f2f2f">F</text><text x="-6.12" y="7.33" font-size="2.2" fill="#2f2f2f" opacity=".6">L21</text></g><g transform="translate(127.25,53.43) rotate(0)"><rect x="-9.03" y="-9.03" width="18.05" height="18.05" rx="1.6" fill="#e8e2d0" stroke="#1b1c1f" stroke-width=".3"/><rect x="-6.93" y="-7.93" width="13.85" height="13.25" rx="1.4" fill="#f6f1e2"/><text x="-5.53" y="-3.33" font-size="3.6" fill="#2f2f2f">R</text><text x="-6.12" y="7.33" font-size="2.2" fill="#2f2f2f" opacity=".6">L22</text></g><g transform="translate(127.25,34.38) rotate(0)"><rect x="-9.03" y="-9.03" width="18.05" height="18.05" rx="1.6" fill="#e8e2d0" stroke="#1b1c1f" stroke-width=".3"/><rect x="-6.93" y="-7.93" width="13.85" height="13.25" rx="1.4" fill="#f6f1e2"/><text x="-5.53" y="-3.33" font-size="2.9" fill="#2f2f2f">$</text><text x="-5.53" y="2.27" font-size="2.9" fill="#2f2f2f">4</text><text x="-6.12" y="7.33" font-size="2.2" fill="#2f2f2f" opacity=".6">L23</text></g><g transform="translate(146.30,93.91) rotate(0)"><rect x="-9.03" y="-9.03" width="18.05" height="18.05" rx="1.6" fill="#e8e2d0" stroke="#1b1c1f" stroke-width=".3"/><rect x="-6.93" y="-7.93" width="13.85" height="13.25" rx="1.4" fill="#f6f1e2"/><text x="-5.53" y="-3.33" font-size="3.6" fill="#2f2f2f">B</text><text x="-6.12" y="7.33" font-size="2.2" fill="#2f2f2f" opacity=".6">L24</text></g><g transform="translate(146.30,74.86) rotate(0)"><rect x="-9.03" y="-9.03" width="18.05" height="18.05" rx="1.6" fill="#e8e2d0" stroke="#1b1c1f" stroke-width=".3"/><rect x="-6.93" y="-7.93" width="13.85" height="13.25" rx="1.4" fill="#f6f1e2"/><text x="-5.53" y="-3.33" font-size="3.6" fill="#2f2f2f">G</text><text x="-6.12" y="7.33" font-size="2.2" fill="#2f2f2f" opacity=".6">L25</text></g><g transform="translate(146.30,55.81) rotate(0)"><rect x="-9.03" y="-9.03" width="18.05" height="18.05" rx="1.6" fill="#e8e2d0" stroke="#1b1c1f" stroke-width=".3"/><rect x="-6.93" y="-7.93" width="13.85" height="13.25" rx="1.4" fill="#f6f1e2"/><text x="-5.53" y="-3.33" font-size="3.6" fill="#2f2f2f">T</text><text x="-6.12" y="7.33" font-size="2.2" fill="#2f2f2f" opacity=".6">L26</text></g><g transform="translate(146.30,36.76) rotate(0)"><rect x="-9.03" y="-9.03" width="18.05" height="18.05" rx="1.6" fill="#e8e2d0" stroke="#1b1c1f" stroke-width=".3"/><rect x="-6.93" y="-7.93" width="13.85" height="13.25" rx="1.4" fill="#f6f1e2"/><text x="-5.53" y="-3.33" font-size="2.9" fill="#2f2f2f">%</text><text x="-5.53" y="2.27" font-size="2.9" fill="#2f2f2f">5</text><text x="-6.12" y="7.33" font-size="2.2" fill="#2f2f2f" opacity=".6">L27</text></g><g transform="translate(165.35,79.62) rotate(0)"><rect x="-9.03" y="-9.03" width="18.05" height="18.05" rx="1.6" fill="#7d8189" stroke="#1b1c1f" stroke-width=".3"/><rect x="-6.93" y="-7.93" width="13.85" height="13.25" rx="1.4" fill="#8f939b"/><text x="-5.53" y="-3.33" font-size="2.9" fill="#f2f2f2">PgDn</text><text x="-6.12" y="7.33" font-size="2.2" fill="#f2f2f2" opacity=".6">L28</text></g><g transform="translate(165.35,60.58) rotate(0)"><rect x="-9.03" y="-9.03" width="18.05" height="18.05" rx="1.6" fill="#e8e2d0" stroke="#1b1c1f" stroke-width=".3"/><rect x="-6.93" y="-7.93" width="13.85" height="13.25" rx="1.4" fill="#f6f1e2"/><text x="-5.53" y="-3.33" font-size="2.9" fill="#2f2f2f">}</text><text x="-5.53" y="2.27" font-size="2.9" fill="#2f2f2f">]</text><text x="-6.12" y="7.33" font-size="2.2" fill="#2f2f2f" opacity=".6">L29</text></g><g transform="translate(165.35,41.53) rotate(0)"><rect x="-9.03" y="-9.03" width="18.05" height="18.05" rx="1.6" fill="#e8e2d0" stroke="#1b1c1f" stroke-width=".3"/><rect x="-6.93" y="-7.93" width="13.85" height="13.25" rx="1.4" fill="#f6f1e2"/><text x="-5.53" y="-3.33" font-size="2.9" fill="#2f2f2f">~</text><text x="-5.53" y="2.27" font-size="2.9" fill="#2f2f2f">`</text><text x="-6.12" y="7.33" font-size="2.2" fill="#2f2f2f" opacity=".6">L30</text></g><g transform="translate(132.18,118.68) rotate(30)"><rect x="-11.41" y="-9.03" width="22.81" height="18.05" rx="1.6" fill="#7d8189" stroke="#1b1c1f" stroke-width=".3"/><rect x="-9.31" y="-7.93" width="18.61" height="13.25" rx="1.4" fill="#8f939b"/><text x="-7.91" y="-3.33" font-size="2.9" fill="#f2f2f2">Cmd</text><text x="-8.51" y="7.33" font-size="2.2" fill="#f2f2f2" opacity=".6">L31</text><text x="8.51" y="7.33" font-size="2.2" text-anchor="end" fill="#f2f2f2" opacity=".6">1.25U</text></g><g transform="translate(161.93,116.61) rotate(-60)"><rect x="-20.93" y="-9.03" width="41.86" height="18.05" rx="1.6" fill="#7d8189" stroke="#1b1c1f" stroke-width=".3"/><rect x="-18.83" y="-7.93" width="37.66" height="13.25" rx="1.4" fill="#8f939b"/><text x="-17.43" y="-3.33" font-size="2.9" fill="#f2f2f2">Shift</text><text x="-18.03" y="7.33" font-size="2.2" fill="#f2f2f2" opacity=".6">L32</text><text x="18.03" y="7.33" font-size="2.2" text-anchor="end" fill="#f2f2f2" opacity=".6">2.25U</text></g><g transform="translate(176.05,130.26) rotate(-60)"><rect x="-11.41" y="-9.03" width="22.81" height="18.05" rx="1.6" fill="#7d8189" stroke="#1b1c1f" stroke-width=".3"/><rect x="-9.31" y="-7.93" width="18.61" height="13.25" rx="1.4" fill="#8f939b"/><text x="-7.91" y="-3.33" font-size="2.9" fill="#f2f2f2">Alt</text><text x="-8.51" y="7.33" font-size="2.2" fill="#f2f2f2" opacity=".6">L33</text><text x="8.51" y="7.33" font-size="2.2" text-anchor="end" fill="#f2f2f2" opacity=".6">1.25U</text></g><g transform="translate(186.76,111.70) rotate(-60)"><rect x="-9.03" y="-9.03" width="18.05" height="18.05" rx="1.6" fill="#7d8189" stroke="#1b1c1f" stroke-width=".3"/><rect x="-6.93" y="-7.93" width="13.85" height="13.25" rx="1.4" fill="#8f939b"/><text x="-5.53" y="-3.33" font-size="2.9" fill="#f2f2f2">Home</text><text x="-6.12" y="7.33" font-size="2.2" fill="#f2f2f2" opacity=".6">L34</text></g><g transform="translate(379.66,43.91) rotate(0.0)"><rect x="-9.03" y="-9.03" width="18.05" height="18.05" rx="1.6" fill="#7d8189" stroke="#1b1c1f" stroke-width=".3"/><rect x="-6.93" y="-7.93" width="13.85" height="13.25" rx="1.4" fill="#8f939b"/><text x="-5.53" y="-3.33" font-size="2.9" fill="#f2f2f2">Del</text><text x="-6.12" y="7.33" font-size="2.2" fill="#f2f2f2" opacity=".6">R1</text></g><g transform="translate(362.99,101.06) rotate(0.0)"><rect x="-11.41" y="-9.03" width="22.81" height="18.05" rx="1.6" fill="#7d8189" stroke="#1b1c1f" stroke-width=".3"/><rect x="-9.31" y="-7.93" width="18.61" height="13.25" rx="1.4" fill="#8f939b"/><text x="-7.91" y="-3.33" font-size="2.9" fill="#f2f2f2">Ctrl</text><text x="-8.51" y="7.33" font-size="2.2" fill="#f2f2f2" opacity=".6">R2</text><text x="8.51" y="7.33" font-size="2.2" text-anchor="end" fill="#f2f2f2" opacity=".6">1.25U</text></g><g transform="translate(367.76,82.01) rotate(0.0)"><rect x="-16.17" y="-9.03" width="32.34" height="18.05" rx="1.6" fill="#7d8189" stroke="#1b1c1f" stroke-width=".3"/><rect x="-14.07" y="-7.93" width="28.14" height="13.25" rx="1.4" fill="#8f939b"/><text x="-12.67" y="-3.33" font-size="2.9" fill="#f2f2f2">Ctrl</text><text x="-13.27" y="7.33" font-size="2.2" fill="#f2f2f2" opacity=".6">R3</text><text x="13.27" y="7.33" font-size="2.2" text-anchor="end" fill="#f2f2f2" opacity=".6">1.75U</text></g><g transform="translate(365.38,62.96) rotate(0.0)"><rect x="-13.79" y="-9.03" width="27.58" height="18.05" rx="1.6" fill="#e8e2d0" stroke="#1b1c1f" stroke-width=".3"/><rect x="-11.69" y="-7.93" width="23.38" height="13.25" rx="1.4" fill="#f6f1e2"/><text x="-10.29" y="-3.33" font-size="2.9" fill="#2f2f2f">|</text><text x="-10.29" y="2.27" font-size="2.9" fill="#2f2f2f">\</text><text x="-10.89" y="7.33" font-size="2.2" fill="#2f2f2f" opacity=".6">R4</text><text x="10.89" y="7.33" font-size="2.2" text-anchor="end" fill="#2f2f2f" opacity=".6">1.5U</text></g><g transform="translate(360.61,43.91) rotate(0.0)"><rect x="-9.03" y="-9.03" width="18.05" height="18.05" rx="1.6" fill="#e8e2d0" stroke="#1b1c1f" stroke-width=".3"/><rect x="-6.93" y="-7.93" width="13.85" height="13.25" rx="1.4" fill="#f6f1e2"/><text x="-5.53" y="-3.33" font-size="2.9" fill="#2f2f2f">_</text><text x="-5.53" y="2.27" font-size="2.9" fill="#2f2f2f">-</text><text x="-6.12" y="7.33" font-size="2.2" fill="#2f2f2f" opacity=".6">R5</text></g><g transform="translate(341.56,96.29) rotate(0.0)"><rect x="-9.03" y="-9.03" width="18.05" height="18.05" rx="1.6" fill="#e8e2d0" stroke="#1b1c1f" stroke-width=".3"/><rect x="-6.93" y="-7.93" width="13.85" height="13.25" rx="1.4" fill="#f6f1e2"/><text x="-5.53" y="-3.33" font-size="2.9" fill="#2f2f2f">?</text><text x="-5.53" y="2.27" font-size="2.9" fill="#2f2f2f">/</text><text x="-6.12" y="7.33" font-size="2.2" fill="#2f2f2f" opacity=".6">R6</text></g><g transform="translate(341.56,77.24) rotate(0.0)"><rect x="-9.03" y="-9.03" width="18.05" height="18.05" rx="1.6" fill="#e8e2d0" stroke="#1b1c1f" stroke-width=".3"/><rect x="-6.93" y="-7.93" width="13.85" height="13.25" rx="1.4" fill="#f6f1e2"/><text x="-5.53" y="-3.33" font-size="2.9" fill="#2f2f2f">:</text><text x="-5.53" y="2.27" font-size="2.9" fill="#2f2f2f">;</text><text x="-6.12" y="7.33" font-size="2.2" fill="#2f2f2f" opacity=".6">R7</text></g><g transform="translate(341.56,58.19) rotate(0.0)"><rect x="-9.03" y="-9.03" width="18.05" height="18.05" rx="1.6" fill="#e8e2d0" stroke="#1b1c1f" stroke-width=".3"/><rect x="-6.93" y="-7.93" width="13.85" height="13.25" rx="1.4" fill="#f6f1e2"/><text x="-5.53" y="-3.33" font-size="3.6" fill="#2f2f2f">P</text><text x="-6.12" y="7.33" font-size="2.2" fill="#2f2f2f" opacity=".6">R8</text></g><g transform="translate(341.56,39.14) rotate(0.0)"><rect x="-9.03" y="-9.03" width="18.05" height="18.05" rx="1.6" fill="#e8e2d0" stroke="#1b1c1f" stroke-width=".3"/><rect x="-6.93" y="-7.93" width="13.85" height="13.25" rx="1.4" fill="#f6f1e2"/><text x="-5.53" y="-3.33" font-size="2.9" fill="#2f2f2f">)</text><text x="-5.53" y="2.27" font-size="2.9" fill="#2f2f2f">0</text><text x="-6.12" y="7.33" font-size="2.2" fill="#2f2f2f" opacity=".6">R9</text></g><g transform="translate(322.51,110.58) rotate(0.0)"><rect x="-9.03" y="-9.03" width="18.05" height="18.05" rx="1.6" fill="#7d8189" stroke="#1b1c1f" stroke-width=".3"/><rect x="-6.93" y="-7.93" width="13.85" height="13.25" rx="1.4" fill="#8f939b"/><text x="-5.53" y="-3.33" font-size="3.6" fill="#f2f2f2">↑</text><text x="-6.12" y="7.33" font-size="2.2" fill="#f2f2f2" opacity=".6">R10</text></g><g transform="translate(322.51,91.53) rotate(0.0)"><rect x="-9.03" y="-9.03" width="18.05" height="18.05" rx="1.6" fill="#e8e2d0" stroke="#1b1c1f" stroke-width=".3"/><rect x="-6.93" y="-7.93" width="13.85" height="13.25" rx="1.4" fill="#f6f1e2"/><text x="-5.53" y="-3.33" font-size="2.9" fill="#2f2f2f">&gt;</text><text x="-5.53" y="2.27" font-size="2.9" fill="#2f2f2f">.</text><text x="-6.12" y="7.33" font-size="2.2" fill="#2f2f2f" opacity=".6">R11</text></g><g transform="translate(322.51,72.48) rotate(0.0)"><rect x="-9.03" y="-9.03" width="18.05" height="18.05" rx="1.6" fill="#e8e2d0" stroke="#1b1c1f" stroke-width=".3"/><rect x="-6.93" y="-7.93" width="13.85" height="13.25" rx="1.4" fill="#f6f1e2"/><text x="-5.53" y="-3.33" font-size="3.6" fill="#2f2f2f">L</text><text x="-6.12" y="7.33" font-size="2.2" fill="#2f2f2f" opacity=".6">R12</text></g><g transform="translate(322.51,53.43) rotate(0.0)"><rect x="-9.03" y="-9.03" width="18.05" height="18.05" rx="1.6" fill="#e8e2d0" stroke="#1b1c1f" stroke-width=".3"/><rect x="-6.93" y="-7.93" width="13.85" height="13.25" rx="1.4" fill="#f6f1e2"/><text x="-5.53" y="-3.33" font-size="3.6" fill="#2f2f2f">O</text><text x="-6.12" y="7.33" font-size="2.2" fill="#2f2f2f" opacity=".6">R13</text></g><g transform="translate(322.51,34.38) rotate(0.0)"><rect x="-9.03" y="-9.03" width="18.05" height="18.05" rx="1.6" fill="#e8e2d0" stroke="#1b1c1f" stroke-width=".3"/><rect x="-6.93" y="-7.93" width="13.85" height="13.25" rx="1.4" fill="#f6f1e2"/><text x="-5.53" y="-3.33" font-size="2.9" fill="#2f2f2f">(</text><text x="-5.53" y="2.27" font-size="2.9" fill="#2f2f2f">9</text><text x="-6.12" y="7.33" font-size="2.2" fill="#2f2f2f" opacity=".6">R14</text></g><g transform="translate(303.46,108.20) rotate(0.0)"><rect x="-9.03" y="-9.03" width="18.05" height="18.05" rx="1.6" fill="#7d8189" stroke="#1b1c1f" stroke-width=".3"/><rect x="-6.93" y="-7.93" width="13.85" height="13.25" rx="1.4" fill="#8f939b"/><text x="-5.53" y="-3.33" font-size="3.6" fill="#f2f2f2">↓</text><text x="-6.12" y="7.33" font-size="2.2" fill="#f2f2f2" opacity=".6">R15</text></g><g transform="translate(303.46,89.15) rotate(0.0)"><rect x="-9.03" y="-9.03" width="18.05" height="18.05" rx="1.6" fill="#e8e2d0" stroke="#1b1c1f" stroke-width=".3"/><rect x="-6.93" y="-7.93" width="13.85" height="13.25" rx="1.4" fill="#f6f1e2"/><text x="-5.53" y="-3.33" font-size="2.9" fill="#2f2f2f">&lt;</text><text x="-5.53" y="2.27" font-size="2.9" fill="#2f2f2f">,</text><text x="-6.12" y="7.33" font-size="2.2" fill="#2f2f2f" opacity=".6">R16</text></g><g transform="translate(303.46,70.10) rotate(0.0)"><rect x="-9.03" y="-9.03" width="18.05" height="18.05" rx="1.6" fill="#e8e2d0" stroke="#1b1c1f" stroke-width=".3"/><rect x="-6.93" y="-7.93" width="13.85" height="13.25" rx="1.4" fill="#f6f1e2"/><text x="-5.53" y="-3.33" font-size="3.6" fill="#2f2f2f">K</text><text x="-6.12" y="7.33" font-size="2.2" fill="#2f2f2f" opacity=".6">R17</text></g><g transform="translate(303.46,51.05) rotate(0.0)"><rect x="-9.03" y="-9.03" width="18.05" height="18.05" rx="1.6" fill="#e8e2d0" stroke="#1b1c1f" stroke-width=".3"/><rect x="-6.93" y="-7.93" width="13.85" height="13.25" rx="1.4" fill="#f6f1e2"/><text x="-5.53" y="-3.33" font-size="3.6" fill="#2f2f2f">I</text><text x="-6.12" y="7.33" font-size="2.2" fill="#2f2f2f" opacity=".6">R18</text></g><g transform="translate(303.46,32.00) rotate(0.0)"><rect x="-9.03" y="-9.03" width="18.05" height="18.05" rx="1.6" fill="#e8e2d0" stroke="#1b1c1f" stroke-width=".3"/><rect x="-6.93" y="-7.93" width="13.85" height="13.25" rx="1.4" fill="#f6f1e2"/><text x="-5.53" y="-3.33" font-size="2.9" fill="#2f2f2f">*</text><text x="-5.53" y="2.27" font-size="2.9" fill="#2f2f2f">8</text><text x="-6.12" y="7.33" font-size="2.2" fill="#2f2f2f" opacity=".6">R19</text></g><g transform="translate(284.41,91.53) rotate(0.0)"><rect x="-9.03" y="-9.03" width="18.05" height="18.05" rx="1.6" fill="#e8e2d0" stroke="#1b1c1f" stroke-width=".3"/><rect x="-6.93" y="-7.93" width="13.85" height="13.25" rx="1.4" fill="#f6f1e2"/><text x="-5.53" y="-3.33" font-size="3.6" fill="#2f2f2f">M</text><text x="-6.12" y="7.33" font-size="2.2" fill="#2f2f2f" opacity=".6">R20</text></g><g transform="translate(284.41,72.48) rotate(0.0)"><rect x="-9.03" y="-9.03" width="18.05" height="18.05" rx="1.6" fill="#e8e2d0" stroke="#1b1c1f" stroke-width=".3"/><rect x="-6.93" y="-7.93" width="13.85" height="13.25" rx="1.4" fill="#f6f1e2"/><text x="-5.53" y="-3.33" font-size="3.6" fill="#2f2f2f">J</text><text x="-6.12" y="7.33" font-size="2.2" fill="#2f2f2f" opacity=".6">R21</text></g><g transform="translate(284.41,53.43) rotate(0.0)"><rect x="-9.03" y="-9.03" width="18.05" height="18.05" rx="1.6" fill="#e8e2d0" stroke="#1b1c1f" stroke-width=".3"/><rect x="-6.93" y="-7.93" width="13.85" height="13.25" rx="1.4" fill="#f6f1e2"/><text x="-5.53" y="-3.33" font-size="3.6" fill="#2f2f2f">U</text><text x="-6.12" y="7.33" font-size="2.2" fill="#2f2f2f" opacity=".6">R22</text></g><g transform="translate(284.41,34.38) rotate(0.0)"><rect x="-9.03" y="-9.03" width="18.05" height="18.05" rx="1.6" fill="#e8e2d0" stroke="#1b1c1f" stroke-width=".3"/><rect x="-6.93" y="-7.93" width="13.85" height="13.25" rx="1.4" fill="#f6f1e2"/><text x="-5.53" y="-3.33" font-size="2.9" fill="#2f2f2f">&amp;</text><text x="-5.53" y="2.27" font-size="2.9" fill="#2f2f2f">7</text><text x="-6.12" y="7.33" font-size="2.2" fill="#2f2f2f" opacity=".6">R23</text></g><g transform="translate(265.36,93.91) rotate(0.0)"><rect x="-9.03" y="-9.03" width="18.05" height="18.05" rx="1.6" fill="#e8e2d0" stroke="#1b1c1f" stroke-width=".3"/><rect x="-6.93" y="-7.93" width="13.85" height="13.25" rx="1.4" fill="#f6f1e2"/><text x="-5.53" y="-3.33" font-size="3.6" fill="#2f2f2f">N</text><text x="-6.12" y="7.33" font-size="2.2" fill="#2f2f2f" opacity=".6">R24</text></g><g transform="translate(265.36,74.86) rotate(0.0)"><rect x="-9.03" y="-9.03" width="18.05" height="18.05" rx="1.6" fill="#e8e2d0" stroke="#1b1c1f" stroke-width=".3"/><rect x="-6.93" y="-7.93" width="13.85" height="13.25" rx="1.4" fill="#f6f1e2"/><text x="-5.53" y="-3.33" font-size="3.6" fill="#2f2f2f">H</text><text x="-6.12" y="7.33" font-size="2.2" fill="#2f2f2f" opacity=".6">R25</text></g><g transform="translate(265.36,55.81) rotate(0.0)"><rect x="-9.03" y="-9.03" width="18.05" height="18.05" rx="1.6" fill="#e8e2d0" stroke="#1b1c1f" stroke-width=".3"/><rect x="-6.93" y="-7.93" width="13.85" height="13.25" rx="1.4" fill="#f6f1e2"/><text x="-5.53" y="-3.33" font-size="3.6" fill="#2f2f2f">Y</text><text x="-6.12" y="7.33" font-size="2.2" fill="#2f2f2f" opacity=".6">R26</text></g><g transform="translate(265.36,36.76) rotate(0.0)"><rect x="-9.03" y="-9.03" width="18.05" height="18.05" rx="1.6" fill="#e8e2d0" stroke="#1b1c1f" stroke-width=".3"/><rect x="-6.93" y="-7.93" width="13.85" height="13.25" rx="1.4" fill="#f6f1e2"/><text x="-5.53" y="-3.33" font-size="2.9" fill="#2f2f2f">^</text><text x="-5.53" y="2.27" font-size="2.9" fill="#2f2f2f">6</text><text x="-6.12" y="7.33" font-size="2.2" fill="#2f2f2f" opacity=".6">R27</text></g><g transform="translate(246.31,79.62) rotate(0.0)"><rect x="-9.03" y="-9.03" width="18.05" height="18.05" rx="1.6" fill="#e8e2d0" stroke="#1b1c1f" stroke-width=".3"/><rect x="-6.93" y="-7.93" width="13.85" height="13.25" rx="1.4" fill="#f6f1e2"/><text x="-5.53" y="-3.33" font-size="2.9" fill="#2f2f2f">"</text><text x="-5.53" y="2.27" font-size="2.9" fill="#2f2f2f">'</text><text x="-6.12" y="7.33" font-size="2.2" fill="#2f2f2f" opacity=".6">R28</text></g><g transform="translate(246.31,60.58) rotate(0.0)"><rect x="-9.03" y="-9.03" width="18.05" height="18.05" rx="1.6" fill="#e8e2d0" stroke="#1b1c1f" stroke-width=".3"/><rect x="-6.93" y="-7.93" width="13.85" height="13.25" rx="1.4" fill="#f6f1e2"/><text x="-5.53" y="-3.33" font-size="2.9" fill="#2f2f2f">{</text><text x="-5.53" y="2.27" font-size="2.9" fill="#2f2f2f">[</text><text x="-6.12" y="7.33" font-size="2.2" fill="#2f2f2f" opacity=".6">R29</text></g><g transform="translate(246.31,41.53) rotate(0.0)"><rect x="-9.03" y="-9.03" width="18.05" height="18.05" rx="1.6" fill="#7d8189" stroke="#1b1c1f" stroke-width=".3"/><rect x="-6.93" y="-7.93" width="13.85" height="13.25" rx="1.4" fill="#8f939b"/><text x="-5.53" y="-3.33" font-size="2.9" fill="#f2f2f2">PgUp</text><text x="-6.12" y="7.33" font-size="2.2" fill="#f2f2f2" opacity=".6">R30</text></g><g transform="translate(279.48,118.68) rotate(-30)"><rect x="-11.41" y="-9.03" width="22.81" height="18.05" rx="1.6" fill="#7d8189" stroke="#1b1c1f" stroke-width=".3"/><rect x="-9.31" y="-7.93" width="18.61" height="13.25" rx="1.4" fill="#8f939b"/><text x="-7.91" y="-3.33" font-size="3.6" fill="#f2f2f2">Fn</text><text x="-8.51" y="7.33" font-size="2.2" fill="#f2f2f2" opacity=".6">R31</text><text x="8.51" y="7.33" font-size="2.2" text-anchor="end" fill="#f2f2f2" opacity=".6">1.25U</text></g><g transform="translate(249.73,116.61) rotate(60)"><rect x="-20.93" y="-9.03" width="41.86" height="18.05" rx="1.6" fill="#b8433a" stroke="#1b1c1f" stroke-width=".3"/><rect x="-18.83" y="-7.93" width="37.66" height="13.25" rx="1.4" fill="#cc5146"/><text x="-17.43" y="-3.33" font-size="2.9" fill="#fff">Enter</text><text x="-18.03" y="7.33" font-size="2.2" fill="#fff" opacity=".6">R32</text><text x="18.03" y="7.33" font-size="2.2" text-anchor="end" fill="#fff" opacity=".6">2.25U</text></g><g transform="translate(235.61,130.26) rotate(60)"><rect x="-11.41" y="-9.03" width="22.81" height="18.05" rx="1.6" fill="#7d8189" stroke="#1b1c1f" stroke-width=".3"/><rect x="-9.31" y="-7.93" width="18.61" height="13.25" rx="1.4" fill="#8f939b"/><text x="-7.91" y="-3.33" font-size="2.9" fill="#f2f2f2">Alt</text><text x="-8.51" y="7.33" font-size="2.2" fill="#f2f2f2" opacity=".6">R33</text><text x="8.51" y="7.33" font-size="2.2" text-anchor="end" fill="#f2f2f2" opacity=".6">1.25U</text></g><g transform="translate(224.90,111.70) rotate(60)"><rect x="-9.03" y="-9.03" width="18.05" height="18.05" rx="1.6" fill="#7d8189" stroke="#1b1c1f" stroke-width=".3"/><rect x="-6.93" y="-7.93" width="13.85" height="13.25" rx="1.4" fill="#8f939b"/><text x="-5.53" y="-3.33" font-size="2.9" fill="#f2f2f2">End</text><text x="-6.12" y="7.33" font-size="2.2" fill="#f2f2f2" opacity=".6">R34</text></g><text x="8" y="170.3" font-size="4" fill="#c9cbd1">Ogre Ergo · 68 keys</text></svg>